<svg xmlns="http://www.w3.org/2000/svg" width="1024" height="1024" viewBox="0 0 1024 1024" version="1.1"><path d="M 276 221.631 C 273.525 223.068, 269.475 225.378, 267 226.763 C 261.137 230.046, 247.674 239.483, 246.035 241.458 C 245.331 242.306, 244.166 243, 243.445 243 C 242.725 243, 238.783 246.938, 234.685 251.750 C 230.587 256.563, 226.169 261.481, 224.867 262.680 C 223.565 263.879, 220.925 267.174, 219 270.003 C 217.075 272.832, 214.217 276.801, 212.649 278.823 C 211.081 280.845, 208.199 285.650, 206.244 289.500 C 198.422 304.904, 196 309.983, 196 310.982 C 196 311.557, 195.588 312.809, 195.084 313.764 C 194.580 314.719, 193.425 317.300, 192.516 319.500 C 191.608 321.700, 190.473 324.400, 189.994 325.500 C 189.516 326.600, 188.859 329.300, 188.535 331.500 C 187.037 341.681, 186.214 345.721, 185.073 348.500 C 183.151 353.179, 183.351 401.360, 185.304 404.341 C 186.107 405.567, 187.010 408.579, 187.310 411.035 C 188.387 419.861, 189.899 425.642, 192.923 432.500 C 193.408 433.600, 194.824 437.200, 196.069 440.500 C 197.314 443.800, 199.694 448.975, 201.358 452 C 203.021 455.025, 205.327 459.300, 206.482 461.500 C 207.770 463.954, 246.648 503.453, 307.041 563.666 C 451.872 708.065, 565.985 821.301, 568.322 822.938 C 569.785 823.963, 570.485 824.044, 570.759 823.222 C 571.046 822.361, 592.657 822.069, 655.593 822.073 L 740.043 822.079 745.271 818.627 C 748.147 816.728, 752.188 814.377, 754.250 813.402 C 756.313 812.427, 758 811.263, 758 810.815 C 758 810.367, 758.695 810, 759.544 810 C 760.393 810, 762.305 808.836, 763.794 807.413 C 765.282 805.990, 768.075 803.799, 770 802.545 C 776.006 798.630, 791.661 783.229, 796.437 776.536 C 798.947 773.019, 801 769.883, 801 769.567 C 801 769.251, 803.022 766.857, 805.494 764.246 C 807.966 761.636, 810.001 759.050, 810.017 758.500 C 810.032 757.950, 810.924 756.375, 812 755 C 813.076 753.625, 813.976 751.825, 814 751 C 814.024 750.175, 814.924 748.375, 816 747 C 817.076 745.625, 817.966 743.712, 817.978 742.750 C 817.990 741.788, 818.417 741, 818.927 741 C 820.128 741, 823 735.241, 823 732.833 C 823 731.810, 823.384 730.191, 823.853 729.236 C 824.322 728.281, 825.497 725.700, 826.464 723.500 C 827.431 721.300, 828.622 718.719, 829.111 717.764 C 829.600 716.809, 830 713.996, 830 711.514 C 830 709.031, 830.450 707, 831 707 C 831.550 707, 832 705.194, 832 702.986 C 832 700.779, 832.413 698.191, 832.918 697.236 C 834.395 694.441, 837.027 673.200, 836.975 664.500 C 836.948 660.100, 836.340 653.470, 835.623 649.766 C 834.906 646.063, 834.412 641.563, 834.525 639.766 C 834.638 637.970, 834.116 635.612, 833.365 634.527 C 832.614 633.443, 832 631, 832 629.098 C 832 624.288, 828.724 614.386, 826.629 612.865 C 826.148 612.516, 825.603 610.450, 825.419 608.274 C 825.234 606.098, 823.315 600.759, 821.153 596.409 C 818.991 592.059, 816.427 586.700, 815.454 584.500 C 814.183 581.626, 785.918 552.742, 715.030 481.877 C 660.769 427.634, 615.490 382.973, 614.409 382.630 C 613.329 382.287, 601.095 370.585, 587.223 356.626 C 573.350 342.666, 562 331.363, 562 331.507 C 562 331.650, 557.105 326.758, 551.123 320.634 C 517.453 286.170, 454.483 223.734, 452.645 222.992 C 450.679 222.199, 450.736 222.121, 453.333 222.063 C 455.136 222.023, 456.015 221.545, 455.750 220.750 C 455.422 219.765, 436.789 219.449, 367.917 219.259 L 280.500 219.018 276 221.631" stroke="none" fill="#4254b4" fill-rule="evenodd"/><path d="M 276.500 218.853 C 274.850 219.853, 270.125 222.641, 266 225.049 C 240.372 240.007, 216.663 265.242, 202.107 293.054 C 186.285 323.283, 180.081 350.437, 181.442 383.500 C 181.781 391.750, 182.444 400.525, 182.915 403 C 187.105 425.024, 189.861 433.188, 199.748 452.872 L 206.465 466.245 375.482 634.429 C 583.401 841.322, 558.071 816.052, 630.500 888.844 C 664.050 922.563, 692.284 950.463, 693.242 950.844 C 694.200 951.226, 707.034 963.548, 721.762 978.226 L 748.539 1004.913 760.020 1008.836 C 775.219 1014.031, 778.797 1014.807, 793.633 1016.129 C 811.755 1017.743, 832.570 1015.720, 847 1010.944 C 864.417 1005.178, 877.869 998.821, 889.237 990.983 C 899.777 983.715, 919.102 965.114, 927.040 954.595 C 930.815 949.593, 935.969 942.789, 938.494 939.475 C 948.645 926.149, 959.384 898.159, 964.191 872.500 C 966.911 857.987, 967.183 838.278, 967.677 620.500 C 968.219 381.515, 968.257 384.022, 963.779 365 C 962.678 360.325, 961.427 354.925, 960.998 353 C 959.587 346.668, 953.159 329.367, 949.055 320.857 C 942.694 307.666, 928.513 287.194, 917.690 275.579 C 904.079 260.971, 880.816 243.532, 865.380 236.366 C 846.711 227.698, 827.513 221.277, 816 219.851 C 795.921 217.365, 771.444 217.125, 533 217.081 C 289.634 217.036, 279.380 217.106, 276.500 218.853 M 276 221.631 C 273.525 223.068, 269.475 225.378, 267 226.763 C 261.137 230.046, 247.674 239.483, 246.035 241.458 C 245.331 242.306, 244.166 243, 243.445 243 C 242.725 243, 238.783 246.938, 234.685 251.750 C 230.587 256.563, 226.169 261.481, 224.867 262.680 C 223.565 263.879, 220.925 267.174, 219 270.003 C 217.075 272.832, 214.217 276.801, 212.649 278.823 C 211.081 280.845, 208.199 285.650, 206.244 289.500 C 198.422 304.904, 196 309.983, 196 310.982 C 196 311.557, 195.588 312.809, 195.084 313.764 C 194.580 314.719, 193.425 317.300, 192.516 319.500 C 191.608 321.700, 190.473 324.400, 189.994 325.500 C 189.516 326.600, 188.859 329.300, 188.535 331.500 C 187.037 341.681, 186.214 345.721, 185.073 348.500 C 183.151 353.179, 183.351 401.360, 185.304 404.341 C 186.107 405.567, 187.010 408.579, 187.310 411.035 C 188.387 419.861, 189.899 425.642, 192.923 432.500 C 193.408 433.600, 194.824 437.200, 196.069 440.500 C 197.314 443.800, 199.694 448.975, 201.358 452 C 203.021 455.025, 205.327 459.300, 206.482 461.500 C 207.770 463.954, 246.648 503.453, 307.041 563.666 C 451.872 708.065, 565.985 821.301, 568.322 822.938 C 569.785 823.963, 570.485 824.044, 570.759 823.222 C 571.046 822.361, 592.657 822.069, 655.593 822.073 L 740.043 822.079 745.271 818.627 C 748.147 816.728, 752.188 814.377, 754.250 813.402 C 756.313 812.427, 758 811.263, 758 810.815 C 758 810.367, 758.695 810, 759.544 810 C 760.393 810, 762.305 808.836, 763.794 807.413 C 765.282 805.990, 768.075 803.799, 770 802.545 C 776.006 798.630, 791.661 783.229, 796.437 776.536 C 798.947 773.019, 801 769.883, 801 769.567 C 801 769.251, 803.022 766.857, 805.494 764.246 C 807.966 761.636, 810.001 759.050, 810.017 758.500 C 810.032 757.950, 810.924 756.375, 812 755 C 813.076 753.625, 813.976 751.825, 814 751 C 814.024 750.175, 814.924 748.375, 816 747 C 817.076 745.625, 817.966 743.712, 817.978 742.750 C 817.990 741.788, 818.417 741, 818.927 741 C 820.128 741, 823 735.241, 823 732.833 C 823 731.810, 823.384 730.191, 823.853 729.236 C 824.322 728.281, 825.497 725.700, 826.464 723.500 C 827.431 721.300, 828.622 718.719, 829.111 717.764 C 829.600 716.809, 830 713.996, 830 711.514 C 830 709.031, 830.450 707, 831 707 C 831.550 707, 832 705.194, 832 702.986 C 832 700.779, 832.413 698.191, 832.918 697.236 C 834.395 694.441, 837.027 673.200, 836.975 664.500 C 836.948 660.100, 836.340 653.470, 835.623 649.766 C 834.906 646.063, 834.412 641.563, 834.525 639.766 C 834.638 637.970, 834.116 635.612, 833.365 634.527 C 832.614 633.443, 832 631, 832 629.098 C 832 624.288, 828.724 614.386, 826.629 612.865 C 826.148 612.516, 825.603 610.450, 825.419 608.274 C 825.234 606.098, 823.315 600.759, 821.153 596.409 C 818.991 592.059, 816.427 586.700, 815.454 584.500 C 814.183 581.626, 785.918 552.742, 715.030 481.877 C 660.769 427.634, 615.490 382.973, 614.409 382.630 C 613.329 382.287, 601.095 370.585, 587.223 356.626 C 573.350 342.666, 562 331.363, 562 331.507 C 562 331.650, 557.105 326.758, 551.123 320.634 C 517.453 286.170, 454.483 223.734, 452.645 222.992 C 450.679 222.199, 450.736 222.121, 453.333 222.063 C 455.136 222.023, 456.015 221.545, 455.750 220.750 C 455.422 219.765, 436.789 219.449, 367.917 219.259 L 280.500 219.018 276 221.631" stroke="none" fill="#4454b4" fill-rule="evenodd"/><path d="M 276.500 218.853 C 274.850 219.853, 270.125 222.641, 266 225.049 C 240.372 240.007, 216.663 265.242, 202.107 293.054 C 186.285 323.283, 180.081 350.437, 181.442 383.500 C 181.781 391.750, 182.444 400.525, 182.915 403 C 187.105 425.024, 189.861 433.188, 199.748 452.872 L 206.465 466.245 375.482 634.429 C 583.401 841.322, 558.071 816.052, 630.500 888.844 C 664.050 922.563, 692.284 950.463, 693.242 950.844 C 694.200 951.226, 707.034 963.548, 721.762 978.226 L 748.539 1004.913 760.020 1008.836 C 775.219 1014.031, 778.797 1014.807, 793.633 1016.129 C 811.755 1017.743, 832.570 1015.720, 847 1010.944 C 864.417 1005.178, 877.869 998.821, 889.237 990.983 C 899.777 983.715, 919.102 965.114, 927.040 954.595 C 930.815 949.593, 935.969 942.789, 938.494 939.475 C 948.645 926.149, 959.384 898.159, 964.191 872.500 C 966.911 857.987, 967.183 838.278, 967.677 620.500 C 968.219 381.515, 968.257 384.022, 963.779 365 C 962.678 360.325, 961.427 354.925, 960.998 353 C 959.587 346.668, 953.159 329.367, 949.055 320.857 C 942.694 307.666, 928.513 287.194, 917.690 275.579 C 904.079 260.971, 880.816 243.532, 865.380 236.366 C 846.711 227.698, 827.513 221.277, 816 219.851 C 795.921 217.365, 771.444 217.125, 533 217.081 C 289.634 217.036, 279.380 217.106, 276.500 218.853 M 276 221.631 C 273.525 223.068, 269.475 225.378, 267 226.763 C 261.137 230.046, 247.674 239.483, 246.035 241.458 C 245.331 242.306, 244.166 243, 243.445 243 C 242.725 243, 238.783 246.938, 234.685 251.750 C 230.587 256.563, 226.169 261.481, 224.867 262.680 C 223.565 263.879, 220.925 267.174, 219 270.003 C 217.075 272.832, 214.217 276.801, 212.649 278.823 C 211.081 280.845, 208.199 285.650, 206.244 289.500 C 198.422 304.904, 196 309.983, 196 310.982 C 196 311.557, 195.588 312.809, 195.084 313.764 C 194.580 314.719, 193.425 317.300, 192.516 319.500 C 191.608 321.700, 190.473 324.400, 189.994 325.500 C 189.516 326.600, 188.859 329.300, 188.535 331.500 C 187.037 341.681, 186.214 345.721, 185.073 348.500 C 183.151 353.179, 183.351 401.360, 185.304 404.341 C 186.107 405.567, 187.010 408.579, 187.310 411.035 C 188.387 419.861, 189.899 425.642, 192.923 432.500 C 193.408 433.600, 194.824 437.200, 196.069 440.500 C 197.314 443.800, 199.694 448.975, 201.358 452 C 203.021 455.025, 205.327 459.300, 206.482 461.500 C 207.770 463.954, 246.648 503.453, 307.041 563.666 C 451.872 708.065, 565.985 821.301, 568.322 822.938 C 569.785 823.963, 570.485 824.044, 570.759 823.222 C 571.046 822.361, 592.657 822.069, 655.593 822.073 L 740.043 822.079 745.271 818.627 C 748.147 816.728, 752.188 814.377, 754.250 813.402 C 756.313 812.427, 758 811.263, 758 810.815 C 758 810.367, 758.695 810, 759.544 810 C 760.393 810, 762.305 808.836, 763.794 807.413 C 765.282 805.990, 768.075 803.799, 770 802.545 C 776.006 798.630, 791.661 783.229, 796.437 776.536 C 798.947 773.019, 801 769.883, 801 769.567 C 801 769.251, 803.022 766.857, 805.494 764.246 C 807.966 761.636, 810.001 759.050, 810.017 758.500 C 810.032 757.950, 810.924 756.375, 812 755 C 813.076 753.625, 813.976 751.825, 814 751 C 814.024 750.175, 814.924 748.375, 816 747 C 817.076 745.625, 817.966 743.712, 817.978 742.750 C 817.990 741.788, 818.417 741, 818.927 741 C 820.128 741, 823 735.241, 823 732.833 C 823 731.810, 823.384 730.191, 823.853 729.236 C 824.322 728.281, 825.497 725.700, 826.464 723.500 C 827.431 721.300, 828.622 718.719, 829.111 717.764 C 829.600 716.809, 830 713.996, 830 711.514 C 830 709.031, 830.450 707, 831 707 C 831.550 707, 832 705.194, 832 702.986 C 832 700.779, 832.413 698.191, 832.918 697.236 C 834.395 694.441, 837.027 673.200, 836.975 664.500 C 836.948 660.100, 836.340 653.470, 835.623 649.766 C 834.906 646.063, 834.412 641.563, 834.525 639.766 C 834.638 637.970, 834.116 635.612, 833.365 634.527 C 832.614 633.443, 832 631, 832 629.098 C 832 624.288, 828.724 614.386, 826.629 612.865 C 826.148 612.516, 825.603 610.450, 825.419 608.274 C 825.234 606.098, 823.315 600.759, 821.153 596.409 C 818.991 592.059, 816.427 586.700, 815.454 584.500 C 814.183 581.626, 785.918 552.742, 715.030 481.877 C 660.769 427.634, 615.490 382.973, 614.409 382.630 C 613.329 382.287, 601.095 370.585, 587.223 356.626 C 573.350 342.666, 562 331.363, 562 331.507 C 562 331.650, 557.105 326.758, 551.123 320.634 C 517.453 286.170, 454.483 223.734, 452.645 222.992 C 450.679 222.199, 450.736 222.121, 453.333 222.063 C 455.136 222.023, 456.015 221.545, 455.750 220.750 C 455.422 219.765, 436.789 219.449, 367.917 219.259 L 280.500 219.018 276 221.631" stroke="none" fill="#4454b4" fill-rule="evenodd"/><path d="M 194 23.685 C 192.625 23.951, 191.072 24.581, 190.550 25.085 C 190.028 25.588, 187.017 26, 183.859 26 C 180.701 26, 177.840 26.450, 177.500 27 C 177.160 27.550, 175.327 28, 173.427 28 C 171.527 28, 169.191 28.384, 168.236 28.853 C 167.281 29.322, 164.700 30.497, 162.500 31.464 C 160.300 32.431, 157.719 33.622, 156.764 34.111 C 155.809 34.600, 154.415 35, 153.667 35 C 151.937 35, 146.224 37.829, 145.461 39.063 C 145.142 39.578, 144.009 40, 142.941 40 C 141.873 40, 141 40.450, 141 41 C 141 41.550, 140.394 42, 139.654 42 C 137.581 42, 132.530 44.757, 130.507 46.993 C 129.508 48.097, 128.155 49, 127.500 49 C 126.845 49, 125.495 49.900, 124.500 51 C 123.505 52.100, 122.191 53, 121.581 53 C 120.252 53, 94 79.126, 94 80.449 C 94 80.956, 93.037 82.396, 91.861 83.648 C 90.684 84.900, 89.222 86.778, 88.611 87.820 C 85.836 92.552, 81.623 98.530, 80.851 98.833 C 80.383 99.017, 80 100.029, 80 101.083 C 80 102.138, 79.550 103, 79 103 C 78.450 103, 78 103.845, 78 104.878 C 78 105.910, 77.325 107.315, 76.500 108 C 75.675 108.685, 75 109.810, 75 110.500 C 75 111.190, 74.354 112.291, 73.565 112.946 C 71.604 114.573, 68 121.652, 68 123.876 C 68 124.874, 67.100 126.505, 66 127.500 C 64.900 128.495, 64 130.339, 64 131.596 C 64 132.853, 63.609 134.124, 63.131 134.419 C 62.654 134.714, 61.974 136.760, 61.622 138.965 C 61.269 141.170, 60.085 144.568, 58.990 146.517 C 57.840 148.566, 57 151.922, 57 154.471 C 57 156.897, 56.550 159.160, 56 159.500 C 55.450 159.840, 54.993 162.454, 54.985 165.309 C 54.977 168.164, 54.321 172.300, 53.529 174.500 C 51.357 180.528, 51.357 666.472, 53.529 672.500 C 54.321 674.700, 54.977 677.711, 54.985 679.191 C 54.993 680.671, 55.450 682.160, 56 682.500 C 56.550 682.840, 57 685.101, 57 687.524 C 57 690.362, 57.889 693.522, 59.500 696.407 C 60.875 698.870, 62 701.784, 62 702.883 C 62 703.983, 62.450 705.160, 63 705.500 C 63.550 705.840, 64 707.441, 64 709.059 C 64 710.677, 64.450 712, 65 712 C 65.550 712, 66 712.873, 66 713.941 C 66 715.009, 66.422 716.142, 66.937 716.461 C 68.271 717.285, 71 722.998, 71 724.965 C 71 725.877, 71.845 727.530, 72.878 728.638 C 73.910 729.747, 75.047 731.572, 75.403 732.695 C 75.760 733.818, 76.940 735.540, 78.026 736.523 C 79.111 737.506, 80 738.845, 80 739.500 C 80 740.155, 80.900 741.505, 82 742.500 C 83.100 743.495, 84 744.837, 84 745.481 C 84 746.125, 85.125 747.708, 86.500 749 C 87.875 750.292, 89 751.838, 89 752.435 C 89 753.832, 122.176 787, 123.574 787 C 124.152 787, 125.948 788.386, 127.563 790.080 C 129.178 791.775, 132.300 793.988, 134.500 795 C 136.700 796.012, 139.822 798.225, 141.437 799.920 C 143.147 801.713, 145.445 803.031, 146.937 803.073 C 148.347 803.113, 150.850 803.988, 152.500 805.017 C 158.046 808.476, 161.296 810, 163.123 810 C 164.122 810, 166.446 810.846, 168.287 811.880 C 170.129 812.915, 173.062 814.074, 174.806 814.457 C 176.550 814.840, 178.234 815.569, 178.548 816.077 C 178.861 816.585, 180.640 817, 182.500 817 C 184.360 817, 186.160 817.450, 186.500 818 C 186.840 818.550, 188.351 819, 189.859 819 C 191.367 819, 193.082 819.482, 193.671 820.071 C 194.261 820.661, 197.388 821.137, 200.621 821.130 C 203.855 821.124, 208.428 821.767, 210.785 822.559 C 214.450 823.792, 240.201 824, 388.913 824 L 562.757 824 625.763 887 C 660.416 921.650, 689.337 950, 690.030 950 C 690.724 950, 704.187 962.825, 719.948 978.500 C 735.709 994.175, 749.375 1007, 750.316 1007 C 752.036 1007, 752.711 1007.264, 758.831 1010.331 C 760.663 1011.249, 762.801 1012, 763.581 1012 C 764.361 1012, 765 1012.450, 765 1013 C 765 1013.550, 767.385 1014, 770.300 1014 C 773.215 1014, 776.117 1014.517, 776.750 1015.150 C 777.425 1015.825, 782.152 1016.418, 788.200 1016.586 L 798.500 1016.873 790.100 1015.991 C 779.104 1014.835, 773.863 1013.591, 760.020 1008.847 L 748.539 1004.913 721.762 978.226 C 707.034 963.548, 694.200 951.226, 693.242 950.844 C 692.284 950.463, 664.050 922.563, 630.500 888.844 C 558.071 816.052, 583.401 841.322, 375.482 634.429 L 206.465 466.245 199.748 452.872 C 189.861 433.188, 187.105 425.024, 182.915 403 C 182.444 400.525, 181.781 391.750, 181.442 383.500 C 180.440 359.150, 183.932 336.028, 191.613 316.153 C 204.151 283.709, 225.052 254.735, 249 236.600 C 258.433 229.457, 260.304 228.240, 273.219 220.847 L 279.939 217 533.219 217.064 C 771.386 217.124, 795.932 217.366, 816 219.851 C 833.077 221.966, 864.132 234.092, 880.622 245.086 C 905.800 261.870, 921.685 277.348, 936.263 299.303 C 946.255 314.352, 951.586 324.858, 956.548 339.279 C 960.252 350.045, 961 351.548, 961 348.226 C 961 347.066, 960.550 345.840, 960 345.500 C 959.450 345.160, 959 343.810, 959 342.500 C 959 341.190, 958.550 339.840, 958 339.500 C 957.450 339.160, 957 337.820, 957 336.522 C 957 335.224, 956.249 332.663, 955.331 330.831 C 952.289 324.761, 952 324.039, 952 322.514 C 952 321.681, 951.550 321, 951 321 C 950.450 321, 949.967 320.212, 949.927 319.250 C 949.887 318.288, 948.993 316.150, 947.942 314.500 C 946.890 312.850, 945.620 310.582, 945.119 309.459 C 944.618 308.336, 943.486 306.819, 942.604 306.086 C 941.722 305.354, 941 303.965, 941 303 C 941 302.035, 940.325 300.685, 939.500 300 C 938.675 299.315, 938 298.340, 938 297.832 C 938 297.324, 936.844 295.754, 935.432 294.341 C 934.020 292.929, 932.426 290.812, 931.889 289.637 C 931.353 288.462, 930.295 286.419, 929.539 285.098 C 927.691 281.869, 905.821 260, 904.441 260 C 903.840 260, 902.292 258.875, 901 257.500 C 899.708 256.125, 898.100 255, 897.426 255 C 896.752 255, 894.625 253.425, 892.700 251.500 C 890.775 249.575, 888.480 248, 887.600 248 C 886.720 248, 886 247.601, 886 247.114 C 886 246.627, 884.487 245.510, 882.638 244.632 C 880.789 243.755, 878.716 242.363, 878.033 241.539 C 876.564 239.770, 871.264 237, 869.346 237 C 868.606 237, 868 236.550, 868 236 C 868 235.450, 867.212 234.998, 866.250 234.996 C 865.288 234.994, 862.286 233.869, 859.581 232.496 C 856.875 231.123, 854.062 230, 853.331 230 C 852.599 230, 852 229.550, 852 229 C 852 228.450, 851.155 228, 850.122 228 C 847.730 228, 841.333 225.348, 840.509 224.015 C 840.164 223.457, 838.135 223, 836 223 C 833.865 223, 831.840 222.550, 831.500 222 C 831.160 221.450, 829.874 221, 828.641 221 C 827.408 221, 825.946 220.546, 825.392 219.992 C 822.392 216.992, 805.848 216.680, 631.491 216.336 L 455.483 215.989 393.495 153.995 C 359.401 119.898, 331.052 92, 330.496 92 C 329.941 92, 316.890 79.385, 301.493 63.966 C 274.970 37.403, 269.928 33, 266.037 33 C 265.127 33, 263.509 32.339, 262.441 31.532 C 261.374 30.724, 259.514 30.049, 258.309 30.032 C 257.104 30.014, 255.840 29.550, 255.500 29 C 255.160 28.450, 253.135 28, 251 28 C 248.865 28, 246.840 27.550, 246.500 27 C 246.160 26.450, 244.199 26, 242.141 26 C 240.083 26, 237.838 25.438, 237.152 24.750 C 236.249 23.845, 230.460 23.459, 216.202 23.350 C 205.366 23.267, 195.375 23.418, 194 23.685 M 966.551 381.643 C 967.478 388.025, 968 388.415, 968 382.726 C 968 380.191, 967.515 377.818, 966.923 377.452 C 966.174 376.990, 966.061 378.270, 966.551 381.643 M 967.432 773 C 967.432 786.475, 967.574 791.987, 967.747 785.250 C 967.920 778.513, 967.920 767.487, 967.747 760.750 C 967.574 754.013, 967.432 759.525, 967.432 773 M 967.154 846 C 967.054 847.375, 966.693 849.625, 966.350 851 C 965.872 852.919, 966.008 853.240, 966.932 852.382 C 967.628 851.736, 967.968 849.625, 967.736 847.382 C 967.510 845.185, 967.257 844.585, 967.154 846 M 962.202 880.721 C 961.541 882.927, 961 885.409, 961 886.237 C 961 888.937, 954.294 909.328, 951.047 916.500 C 944.854 930.180, 943.029 933.521, 938.494 939.475 C 935.969 942.789, 930.815 949.593, 927.040 954.595 C 919.102 965.114, 899.777 983.715, 889.237 990.983 C 876.741 999.599, 854.038 1009.779, 839.500 1013.286 C 838.400 1013.551, 839.611 1013.820, 842.191 1013.884 C 844.771 1013.948, 847.160 1013.550, 847.500 1013 C 847.840 1012.450, 849.161 1012, 850.437 1012 C 851.712 1012, 853.315 1011.325, 854 1010.500 C 854.685 1009.675, 856.063 1009, 857.063 1009 C 858.064 1009, 859.160 1008.550, 859.500 1008 C 859.840 1007.450, 861.190 1007, 862.500 1007 C 863.810 1007, 865.160 1006.550, 865.500 1006 C 865.840 1005.450, 866.991 1005, 868.059 1005 C 869.127 1005, 870 1004.550, 870 1004 C 870 1003.450, 870.873 1003, 871.941 1003 C 873.009 1003, 874.161 1002.549, 874.502 1001.997 C 874.842 1001.446, 877.045 1000.118, 879.397 999.047 C 881.749 997.976, 884.259 996.393, 884.974 995.531 C 885.690 994.669, 887.789 993.245, 889.638 992.368 C 891.487 991.490, 893 990.373, 893 989.886 C 893 989.399, 893.727 989, 894.616 989 C 896.087 989, 929 956.915, 929 955.481 C 929 955.143, 930.125 953.392, 931.500 951.589 C 932.875 949.786, 934 947.887, 934 947.368 C 934 946.849, 936.291 944.192, 939.090 941.462 C 941.890 938.733, 944.597 935.600, 945.105 934.500 C 945.614 933.400, 946.890 931.150, 947.942 929.500 C 948.993 927.850, 949.887 925.576, 949.927 924.446 C 950.009 922.153, 954.665 912.325, 956.087 911.446 C 956.589 911.136, 957 909.135, 957 907 C 957 904.865, 957.450 902.840, 958 902.500 C 958.550 902.160, 959 900.585, 959 899 C 959 897.415, 959.398 895.872, 959.885 895.571 C 960.371 895.271, 961.070 892.882, 961.438 890.262 C 961.806 887.643, 962.570 884.034, 963.134 882.241 C 963.699 880.449, 963.990 878.471, 963.782 877.846 C 963.574 877.221, 962.863 878.515, 962.202 880.721 M 824 1015.578 L 813.500 1016.869 824.347 1016.537 C 830.464 1016.350, 835.675 1015.725, 836.297 1015.103 C 837.570 1013.830, 838.526 1013.793, 824 1015.578" stroke="none" fill="#eb4c7c" fill-rule="evenodd"/></svg>